<?xml version="1.0" encoding="UTF-8" standalone="no"?>
<!-- Created with Inkscape (http://www.inkscape.org/) -->

<svg
   xmlns:dc="http://purl.org/dc/elements/1.1/"
   xmlns:cc="http://creativecommons.org/ns#"
   xmlns:rdf="http://www.w3.org/1999/02/22-rdf-syntax-ns#"
   xmlns:svg="http://www.w3.org/2000/svg"
   xmlns="http://www.w3.org/2000/svg"
   xmlns:sodipodi="http://sodipodi.sourceforge.net/DTD/sodipodi-0.dtd"
   xmlns:inkscape="http://www.inkscape.org/namespaces/inkscape"
   width="32"
   height="32"
   viewBox="0 0 8.4666659 8.4666659"
   version="1.1"
   id="svg8"
   inkscape:version="0.92.4 (unknown)"
   sodipodi:docname="aperture.svg">
  <defs
     id="defs2" />
  <sodipodi:namedview
     id="base"
     pagecolor="#ffffff"
     bordercolor="#666666"
     borderopacity="1.0"
     inkscape:pageopacity="0.0"
     inkscape:pageshadow="2"
     inkscape:zoom="22.627417"
     inkscape:cx="16.498228"
     inkscape:cy="17.069027"
     inkscape:document-units="mm"
     inkscape:current-layer="layer1"
     showgrid="true"
     inkscape:snap-grids="false"
     showguides="false"
     scale-x="1"
     units="px"
     inkscape:window-width="2560"
     inkscape:window-height="1371"
     inkscape:window-x="0"
     inkscape:window-y="32"
     inkscape:window-maximized="1"
     inkscape:pagecheckerboard="true">
    <inkscape:grid
       type="xygrid"
       id="grid14"
       originx="0"
       originy="4.233333" />
  </sodipodi:namedview>
  <metadata
     id="metadata5">
    <rdf:RDF>
      <cc:Work
         rdf:about="">
        <dc:format>image/svg+xml</dc:format>
        <dc:type
           rdf:resource="http://purl.org/dc/dcmitype/StillImage" />
        <dc:title></dc:title>
      </cc:Work>
    </rdf:RDF>
  </metadata>
  <g
     inkscape:label="Calque 1"
     inkscape:groupmode="layer"
     id="layer1"
     transform="translate(0,-288.53334)">
    <path
       style="fill:#ffffff;fill-opacity:1;stroke:none;stroke-width:0.99999994;stroke-opacity:1"
       d="M 16 1 A 15 15 0 0 0 1 16 A 15 15 0 0 0 16 31 A 15 15 0 0 0 31 16 A 15 15 0 0 0 16 1 z M 16 3 A 13 13 0 0 1 29 16 A 13 13 0 0 1 16 29 A 13 13 0 0 1 3 16 A 13 13 0 0 1 16 3 z "
       transform="matrix(0.26458333,0,0,0.26458333,0,288.53334)"
       id="path32" />
    <path
       style="fill:#ffffff;fill-opacity:1;fill-rule:evenodd;stroke:none;stroke-width:0.23948231;stroke-linecap:butt;stroke-linejoin:miter;stroke-miterlimit:4;stroke-dasharray:none;stroke-opacity:1"
       d="m 7.362858,293.29584 -0.9719324,-0.91068 -0.8326157,3.26816 c 1.4752779,-0.71448 1.7662486,-2.04411 1.8045481,-2.35748 z"
       id="path4537"
       inkscape:connector-curvature="0"
       sodipodi:nodetypes="cccc"
       inkscape:transform-center-x="-2.2276372"
       inkscape:transform-center-y="1.2520294" />
    <path
       inkscape:transform-center-y="-1.0755054"
       inkscape:transform-center-x="-1.9599848"
       sodipodi:nodetypes="cccc"
       inkscape:connector-curvature="0"
       id="path4678"
       d="m 6.2557089,290.32094 -1.2746383,0.38638 2.4140018,2.35515 C 7.5139535,291.4276 6.5079455,290.5108 6.2557089,290.32094 Z"
       style="fill:#ffffff;fill-opacity:1;fill-rule:evenodd;stroke:none;stroke-width:0.23948231;stroke-linecap:butt;stroke-linejoin:miter;stroke-miterlimit:4;stroke-dasharray:none;stroke-opacity:1" />
    <path
       style="fill:#ffffff;fill-opacity:1;fill-rule:evenodd;stroke:none;stroke-width:0.23948231;stroke-linecap:butt;stroke-linejoin:miter;stroke-miterlimit:4;stroke-dasharray:none;stroke-opacity:1"
       d="m 3.1257953,289.79231 -0.3027042,1.29706 3.2466206,-0.91301 C 4.7133133,289.25597 3.4163372,289.6688 3.1257953,289.79231 Z"
       id="path4680"
       inkscape:connector-curvature="0"
       sodipodi:nodetypes="cccc"
       inkscape:transform-center-x="-0.21345482"
       inkscape:transform-center-y="-2.426126" />
    <path
       inkscape:transform-center-y="-1.2520304"
       inkscape:transform-center-x="2.2276373"
       sodipodi:nodetypes="cccc"
       inkscape:connector-curvature="0"
       id="path4682"
       d="m 1.1030315,292.23858 0.9719348,0.91068 0.8326204,-3.26816 c -1.4752803,0.71448 -1.7662471,2.04411 -1.8045552,2.35748 z"
       style="fill:#ffffff;fill-opacity:1;fill-rule:evenodd;stroke:none;stroke-width:0.23948231;stroke-linecap:butt;stroke-linejoin:miter;stroke-miterlimit:4;stroke-dasharray:none;stroke-opacity:1" />
    <path
       style="fill:#ffffff;fill-opacity:1;fill-rule:evenodd;stroke:none;stroke-width:0.23948231;stroke-linecap:butt;stroke-linejoin:miter;stroke-miterlimit:4;stroke-dasharray:none;stroke-opacity:1"
       d="M 2.2101816,295.21348 3.484821,294.8271 1.0708216,292.47195 c -0.11888229,1.63487 0.8871277,2.55167 1.13936,2.74153 z"
       id="path4684"
       inkscape:connector-curvature="0"
       sodipodi:nodetypes="cccc"
       inkscape:transform-center-x="1.9599852"
       inkscape:transform-center-y="1.0755044" />
    <path
       inkscape:transform-center-y="2.426125"
       inkscape:transform-center-x="0.21345583"
       sodipodi:nodetypes="cccc"
       inkscape:connector-curvature="0"
       id="path4686"
       d="m 5.3400956,295.74211 0.3027048,-1.29706 -3.2466194,0.91301 c 1.3563978,0.92039 2.6533749,0.50756 2.9439146,0.38405 z"
       style="fill:#ffffff;fill-opacity:1;fill-rule:evenodd;stroke:none;stroke-width:0.23948231;stroke-linecap:butt;stroke-linejoin:miter;stroke-miterlimit:4;stroke-dasharray:none;stroke-opacity:1" />
  </g>
  <g
     transform="translate(0,-288.53334)"
     id="g24"
     inkscape:groupmode="layer"
     inkscape:label="Copie de Calque 1" />
</svg>
