<?xml version="1.0" encoding="UTF-8" standalone="no"?>
<!-- Created with Inkscape (http://www.inkscape.org/) -->

<svg
   xmlns:dc="http://purl.org/dc/elements/1.1/"
   xmlns:cc="http://creativecommons.org/ns#"
   xmlns:rdf="http://www.w3.org/1999/02/22-rdf-syntax-ns#"
   xmlns:svg="http://www.w3.org/2000/svg"
   xmlns="http://www.w3.org/2000/svg"
   xmlns:sodipodi="http://sodipodi.sourceforge.net/DTD/sodipodi-0.dtd"
   xmlns:inkscape="http://www.inkscape.org/namespaces/inkscape"
   width="32"
   height="32"
   viewBox="0 0 8.4666659 8.4666659"
   version="1.1"
   id="svg8"
   inkscape:version="0.92.4 (f8dce91, 2019-08-02)"
   sodipodi:docname="camera.svg">
  <defs
     id="defs2" />
  <sodipodi:namedview
     id="base"
     pagecolor="#ffffff"
     bordercolor="#666666"
     borderopacity="1.0"
     inkscape:pageopacity="0.0"
     inkscape:pageshadow="2"
     inkscape:zoom="45.254834"
     inkscape:cx="14.871423"
     inkscape:cy="16.54235"
     inkscape:document-units="mm"
     inkscape:current-layer="layer1"
     showgrid="true"
     inkscape:snap-grids="true"
     showguides="false"
     scale-x="1"
     units="px"
     inkscape:window-width="2560"
     inkscape:window-height="1371"
     inkscape:window-x="0"
     inkscape:window-y="32"
     inkscape:window-maximized="1"
     inkscape:pagecheckerboard="false">
    <inkscape:grid
       type="xygrid"
       id="grid14"
       originx="0"
       originy="4.233333" />
  </sodipodi:namedview>
  <metadata
     id="metadata5">
    <rdf:RDF>
      <cc:Work
         rdf:about="">
        <dc:format>image/svg+xml</dc:format>
        <dc:type
           rdf:resource="http://purl.org/dc/dcmitype/StillImage" />
        <dc:title />
      </cc:Work>
    </rdf:RDF>
  </metadata>
  <g
     inkscape:label="Calque 1"
     inkscape:groupmode="layer"
     id="layer1"
     transform="translate(0,-288.53334)">
    <path
       style="fill:#cccccc;stroke-width:0.99999994"
       d="M 11 4.5 C 10.446011 4.5 10 4.9460346 10 5.5 L 10 6.5 A 0.99999995 0.99999995 0 0 1 9 7.5 L 3 7.5 C 1.8919726 7.5 1 8.4915507 1 9.7226562 L 1 25.277344 C 1 26.508525 1.8919726 27.5 3 27.5 L 29 27.5 C 30.108027 27.5 31 26.508525 31 25.277344 L 31 9.7226562 C 31 8.4915507 30.108027 7.5 29 7.5 L 23 7.5 A 0.99999995 0.99999995 0 0 1 22 6.5 L 22 5.5 C 22 4.9460346 21.553989 4.5 21 4.5 L 11 4.5 z M 5.5 10.5 A 1.5 1.5 0 0 1 7 12 A 1.5 1.5 0 0 1 5.5 13.5 A 1.5 1.5 0 0 1 4 12 A 1.5 1.5 0 0 1 5.5 10.5 z M 16 10.5 A 6.9999999 6.9999999 0 0 1 23 17.5 A 6.9999999 6.9999999 0 0 1 16 24.5 A 6.9999999 6.9999999 0 0 1 9 17.5 A 6.9999999 6.9999999 0 0 1 16 10.5 z M 16 12.5 A 4.9999997 4.9999997 0 0 0 11 17.5 A 4.9999997 4.9999997 0 0 0 16 22.5 A 4.9999997 4.9999997 0 0 0 21 17.5 A 4.9999997 4.9999997 0 0 0 16 12.5 z "
       transform="matrix(0.26458333,0,0,0.26458333,0,288.53334)"
       id="rect4065" />
  </g>
  <g
     transform="translate(0,-288.53334)"
     id="g24"
     inkscape:groupmode="layer"
     inkscape:label="Copie de Calque 1" />
</svg>
