<?xml version="1.0" encoding="UTF-8" standalone="no"?>
<!-- Created with Inkscape (http://www.inkscape.org/) -->

<svg
   xmlns:dc="http://purl.org/dc/elements/1.1/"
   xmlns:cc="http://creativecommons.org/ns#"
   xmlns:rdf="http://www.w3.org/1999/02/22-rdf-syntax-ns#"
   xmlns:svg="http://www.w3.org/2000/svg"
   xmlns="http://www.w3.org/2000/svg"
   xmlns:sodipodi="http://sodipodi.sourceforge.net/DTD/sodipodi-0.dtd"
   xmlns:inkscape="http://www.inkscape.org/namespaces/inkscape"
   width="32"
   height="32"
   viewBox="0 0 8.4666659 8.4666659"
   version="1.1"
   id="svg8"
   inkscape:version="0.92.4 (f8dce91, 2019-08-02)"
   sodipodi:docname="date.svg">
  <defs
     id="defs2" />
  <sodipodi:namedview
     id="base"
     pagecolor="#ffffff"
     bordercolor="#666666"
     borderopacity="1.0"
     inkscape:pageopacity="0.0"
     inkscape:pageshadow="2"
     inkscape:zoom="32"
     inkscape:cx="15.908325"
     inkscape:cy="14.333035"
     inkscape:document-units="mm"
     inkscape:current-layer="layer1"
     showgrid="true"
     inkscape:snap-grids="true"
     showguides="false"
     scale-x="1"
     units="px"
     inkscape:window-width="2560"
     inkscape:window-height="1371"
     inkscape:window-x="0"
     inkscape:window-y="32"
     inkscape:window-maximized="1"
     inkscape:pagecheckerboard="false">
    <inkscape:grid
       type="xygrid"
       id="grid14"
       originx="0"
       originy="4.233333" />
  </sodipodi:namedview>
  <metadata
     id="metadata5">
    <rdf:RDF>
      <cc:Work
         rdf:about="">
        <dc:format>image/svg+xml</dc:format>
        <dc:type
           rdf:resource="http://purl.org/dc/dcmitype/StillImage" />
        <dc:title></dc:title>
      </cc:Work>
    </rdf:RDF>
  </metadata>
  <g
     inkscape:label="Calque 1"
     inkscape:groupmode="layer"
     id="layer1"
     transform="translate(0,-288.53334)">
    <path
       style="fill:#cccccc;stroke-width:0.99999994"
       d="M 4 5 C 2.3380195 5 1 6.3380283 1 8 L 1 27 C 1 28.662009 2.3380195 30 4 30 L 28 30 C 29.661981 30 31 28.662009 31 27 L 31 8 C 31 6.3380283 29.661981 5 28 5 L 25 5 L 25 7 C 25 7.5540232 24.554023 8 24 8 L 20 8 C 19.445977 8 19 7.5540232 19 7 L 19 5 L 13 5 L 13 7 C 13 7.5540232 12.554023 8 12 8 L 8 8 C 7.4459768 8 7 7.5540232 7 7 L 7 5 L 4 5 z M 4 10 L 28 10 C 28.553998 10 29 10.445997 29 11 L 29 27 C 29 27.554003 28.553998 28 28 28 L 4 28 C 3.4460023 28 3 27.554003 3 27 L 3 11 C 3 10.445997 3.4460023 10 4 10 z "
       transform="matrix(0.26458333,0,0,0.26458333,0,288.53334)"
       id="rect4395" />
    <rect
       style="fill:#cccccc;stroke-width:0.30551142"
       id="rect4397"
       width="1.0583334"
       height="1.3228898"
       x="2.1166666"
       y="289.0625"
       ry="0.26459032" />
    <rect
       ry="0.26459032"
       y="289.0625"
       x="5.2916665"
       height="1.3228898"
       width="1.0583335"
       id="rect4399"
       style="fill:#cccccc;stroke-width:0.30551142" />
    <rect
       ry="0.26458597"
       y="291.70834"
       x="2.3812501"
       height="1.0583333"
       width="1.0583333"
       id="rect4408"
       style="fill:#cccccc;stroke-width:0.26458332" />
    <rect
       style="fill:#cccccc;stroke-width:0.26458332"
       id="rect4410"
       width="1.0583333"
       height="1.0583333"
       x="3.7041669"
       y="291.70834"
       ry="0.26458597" />
    <rect
       ry="0.26458597"
       y="291.70834"
       x="5.0270834"
       height="1.0583333"
       width="1.0583333"
       id="rect4412"
       style="fill:#cccccc;stroke-width:0.26458332" />
    <rect
       style="fill:#cccccc;stroke-width:0.26458332"
       id="rect4414"
       width="1.0583333"
       height="1.0583333"
       x="6.3499999"
       y="291.70834"
       ry="0.26458597" />
    <rect
       ry="0.26458597"
       y="293.03128"
       x="1.0583334"
       height="1.0583333"
       width="1.0583333"
       id="rect4416"
       style="fill:#cccccc;stroke-width:0.26458332" />
    <rect
       style="fill:#cccccc;stroke-width:0.26458332"
       id="rect4418"
       width="1.0583333"
       height="1.0583333"
       x="2.3812501"
       y="293.03128"
       ry="0.26458597" />
    <rect
       ry="0.26458597"
       y="293.03128"
       x="3.7041669"
       height="1.0583333"
       width="1.0583333"
       id="rect4420"
       style="fill:#cccccc;stroke-width:0.26458332" />
    <rect
       style="fill:#cccccc;stroke-width:0.26458332"
       id="rect4422"
       width="1.0583333"
       height="1.0583333"
       x="5.0270834"
       y="293.03128"
       ry="0.26458597" />
    <rect
       ry="0.26458597"
       y="293.03128"
       x="6.3499999"
       height="1.0583333"
       width="1.0583333"
       id="rect4424"
       style="fill:#cccccc;stroke-width:0.26458332" />
    <rect
       style="fill:#cccccc;stroke-width:0.26458332"
       id="rect4426"
       width="1.0583333"
       height="1.0583333"
       x="1.0583335"
       y="294.35419"
       ry="0.26458597" />
    <rect
       ry="0.26458597"
       y="294.35419"
       x="2.3812501"
       height="1.0583333"
       width="1.0583333"
       id="rect4428"
       style="fill:#cccccc;stroke-width:0.26458332" />
    <rect
       style="fill:#cccccc;stroke-width:0.26458332"
       id="rect4430"
       width="1.0583333"
       height="1.0583333"
       x="3.7041669"
       y="294.35419"
       ry="0.26458597" />
    <rect
       ry="0.26458597"
       y="294.35419"
       x="5.0270834"
       height="1.0583333"
       width="1.0583333"
       id="rect4432"
       style="fill:#cccccc;stroke-width:0.26458332" />
  </g>
  <g
     transform="translate(0,-288.53334)"
     id="g24"
     inkscape:groupmode="layer"
     inkscape:label="Copie de Calque 1" />
</svg>
