<?xml version="1.0" encoding="UTF-8" standalone="no"?>
<!-- Created with Inkscape (http://www.inkscape.org/) -->

<svg
   xmlns:dc="http://purl.org/dc/elements/1.1/"
   xmlns:cc="http://creativecommons.org/ns#"
   xmlns:rdf="http://www.w3.org/1999/02/22-rdf-syntax-ns#"
   xmlns:svg="http://www.w3.org/2000/svg"
   xmlns="http://www.w3.org/2000/svg"
   xmlns:sodipodi="http://sodipodi.sourceforge.net/DTD/sodipodi-0.dtd"
   xmlns:inkscape="http://www.inkscape.org/namespaces/inkscape"
   width="32"
   height="32"
   viewBox="0 0 8.4666659 8.4666659"
   version="1.1"
   id="svg8"
   inkscape:version="0.92.4 (f8dce91, 2019-08-02)"
   sodipodi:docname="focal-length.svg">
  <defs
     id="defs2" />
  <sodipodi:namedview
     id="base"
     pagecolor="#ffffff"
     bordercolor="#666666"
     borderopacity="1.0"
     inkscape:pageopacity="0.0"
     inkscape:pageshadow="2"
     inkscape:zoom="32"
     inkscape:cx="8.152347"
     inkscape:cy="15.160178"
     inkscape:document-units="mm"
     inkscape:current-layer="layer1"
     showgrid="true"
     inkscape:snap-grids="false"
     showguides="false"
     scale-x="1"
     units="px"
     inkscape:window-width="2560"
     inkscape:window-height="1371"
     inkscape:window-x="0"
     inkscape:window-y="32"
     inkscape:window-maximized="1"
     inkscape:pagecheckerboard="false">
    <inkscape:grid
       type="xygrid"
       id="grid14"
       originx="0"
       originy="4.233333" />
  </sodipodi:namedview>
  <metadata
     id="metadata5">
    <rdf:RDF>
      <cc:Work
         rdf:about="">
        <dc:format>image/svg+xml</dc:format>
        <dc:type
           rdf:resource="http://purl.org/dc/dcmitype/StillImage" />
        <dc:title />
      </cc:Work>
    </rdf:RDF>
  </metadata>
  <g
     inkscape:label="Calque 1"
     inkscape:groupmode="layer"
     id="layer1"
     transform="translate(0,-288.53334)">
    <g
       id="g3819"
       transform="translate(0.1302058,-0.10951883)"
       style="fill:#cccccc">
      <g
         transform="matrix(1.0548279,0.70710678,-1.0548279,0.70710678,313.40996,82.865479)"
         id="g5202"
         style="fill:#cccccc">
        <rect
           style="fill:#cccccc;fill-opacity:1;fill-rule:evenodd;stroke:none;stroke-width:0.15275709px;stroke-linecap:butt;stroke-linejoin:miter;stroke-opacity:1"
           id="rect5196"
           width="0.52916664"
           height="5.2916555"
           x="0.26458332"
           y="291.44376"
           ry="7.3793203e-06" />
        <rect
           ry="7.3793203e-06"
           y="-5.5499783"
           x="296.20636"
           height="5.2916555"
           width="0.52916664"
           id="rect5198"
           style="fill:#cccccc;fill-opacity:1;fill-rule:evenodd;stroke:none;stroke-width:0.15275709px;stroke-linecap:butt;stroke-linejoin:miter;stroke-opacity:1"
           transform="rotate(89.998789)" />
      </g>
      <path
         inkscape:connector-curvature="0"
         id="path5204"
         d="m 5.7658824,289.79421 v 0.19482 c -0.012437,-0.008 -0.023889,-0.0158 -0.036485,-0.0233 L 5.55625,290.35485 c 0.8247604,0.60523 1.3069872,1.53022 1.3085022,2.50992 -3.273e-4,0.98097 -0.4826736,1.90753 -1.3085022,2.51354 l 0.1731478,0.40825 c 0.012593,-0.007 0.024052,-0.0157 0.036485,-0.0233 v 0.13075 a 3.6472215,3.5718747 0 0 0 1.7562125,-3.04934 3.6472215,3.5718747 0 0 0 -1.7562129,-3.05046 z"
         style="fill:#cccccc;fill-opacity:1;stroke:none;stroke-width:0.27288142;stroke-miterlimit:4;stroke-dasharray:none;stroke-opacity:1" />
      <path
         inkscape:connector-curvature="0"
         id="path3809"
         d="m 4.4146466,290.95176 a 0.70362365,1.8520833 0 0 0 -0.703803,1.85208 0.70362365,1.8520833 0 0 0 0.703803,1.85209 0.70362365,1.8520833 0 0 0 0.7032509,-1.85209 0.70362365,1.8520833 0 0 0 -0.7032509,-1.85208 z m 0,0.33693 a 0.41239492,1.515153 0 0 1 0.4120223,1.51515 0.41239492,1.515153 0 0 1 -0.4120223,1.51516 0.41239492,1.515153 0 0 1 -0.4125742,-1.51516 0.41239492,1.515153 0 0 1 0.4125742,-1.51515 z"
         style="fill:#cccccc;stroke-width:0.43147081" />
    </g>
  </g>
  <g
     transform="translate(0,-288.53334)"
     id="g24"
     inkscape:groupmode="layer"
     inkscape:label="Copie de Calque 1" />
</svg>
