<?xml version="1.0" encoding="UTF-8" standalone="no"?>
<!-- Created with Inkscape (http://www.inkscape.org/) -->

<svg
   xmlns:dc="http://purl.org/dc/elements/1.1/"
   xmlns:cc="http://creativecommons.org/ns#"
   xmlns:rdf="http://www.w3.org/1999/02/22-rdf-syntax-ns#"
   xmlns:svg="http://www.w3.org/2000/svg"
   xmlns="http://www.w3.org/2000/svg"
   xmlns:sodipodi="http://sodipodi.sourceforge.net/DTD/sodipodi-0.dtd"
   xmlns:inkscape="http://www.inkscape.org/namespaces/inkscape"
   width="32"
   height="32"
   viewBox="0 0 8.4666659 8.4666659"
   version="1.1"
   id="svg8"
   inkscape:version="0.92.4 (f8dce91, 2019-08-02)"
   sodipodi:docname="info-filled.svg">
  <defs
     id="defs2" />
  <sodipodi:namedview
     id="base"
     pagecolor="#ffffff"
     bordercolor="#666666"
     borderopacity="1.0"
     inkscape:pageopacity="0.0"
     inkscape:pageshadow="2"
     inkscape:zoom="22.4"
     inkscape:cx="26.718111"
     inkscape:cy="14.00089"
     inkscape:document-units="mm"
     inkscape:current-layer="layer1"
     showgrid="true"
     inkscape:snap-grids="true"
     showguides="false"
     scale-x="1"
     units="px"
     inkscape:window-width="1920"
     inkscape:window-height="1011"
     inkscape:window-x="1920"
     inkscape:window-y="32"
     inkscape:window-maximized="1"
     inkscape:pagecheckerboard="true">
    <inkscape:grid
       type="xygrid"
       id="grid14"
       originx="0"
       originy="4.233333" />
  </sodipodi:namedview>
  <metadata
     id="metadata5">
    <rdf:RDF>
      <cc:Work
         rdf:about="">
        <dc:format>image/svg+xml</dc:format>
        <dc:type
           rdf:resource="http://purl.org/dc/dcmitype/StillImage" />
        <dc:title></dc:title>
      </cc:Work>
    </rdf:RDF>
  </metadata>
  <g
     inkscape:label="Calque 1"
     inkscape:groupmode="layer"
     id="layer1"
     transform="translate(0,-288.53334)">
    <path
       style="stroke-width:0.99999994;fill:#ffffff"
       d="M 16 1 A 15 15 0 0 0 1 16 A 15 15 0 0 0 16 31 A 15 15 0 0 0 31 16 A 15 15 0 0 0 16 1 z M 16 8 A 1.9999999 1.9999999 0 0 1 18 10 A 1.9999999 1.9999999 0 0 1 16 12 A 1.9999999 1.9999999 0 0 1 14 10 A 1.9999999 1.9999999 0 0 1 16 8 z M 14.833984 14 L 17.166016 14 C 17.627664 14 18 14.372336 18 14.833984 L 18 23.166016 C 18 23.627664 17.627664 24 17.166016 24 L 14.833984 24 C 14.372336 24 14 23.627664 14 23.166016 L 14 14.833984 C 14 14.372336 14.372336 14 14.833984 14 z "
       transform="matrix(0.26458333,0,0,0.26458333,0,288.53334)"
       id="path3783" />
  </g>
  <g
     transform="translate(0,-288.53334)"
     id="g24"
     inkscape:groupmode="layer"
     inkscape:label="Copie de Calque 1" />
</svg>
