<?xml version="1.0" encoding="UTF-8" standalone="no"?>
<!-- Created with Inkscape (http://www.inkscape.org/) -->

<svg
   xmlns:dc="http://purl.org/dc/elements/1.1/"
   xmlns:cc="http://creativecommons.org/ns#"
   xmlns:rdf="http://www.w3.org/1999/02/22-rdf-syntax-ns#"
   xmlns:svg="http://www.w3.org/2000/svg"
   xmlns="http://www.w3.org/2000/svg"
   xmlns:sodipodi="http://sodipodi.sourceforge.net/DTD/sodipodi-0.dtd"
   xmlns:inkscape="http://www.inkscape.org/namespaces/inkscape"
   width="32"
   height="32"
   viewBox="0 0 8.4666659 8.4666659"
   version="1.1"
   id="svg8"
   inkscape:version="0.92.3 (2405546, 2018-03-11)"
   sodipodi:docname="info.svg">
  <defs
     id="defs2" />
  <sodipodi:namedview
     id="base"
     pagecolor="#ffffff"
     bordercolor="#666666"
     borderopacity="1.0"
     inkscape:pageopacity="0.0"
     inkscape:pageshadow="2"
     inkscape:zoom="15.839192"
     inkscape:cx="33.503031"
     inkscape:cy="16.653663"
     inkscape:document-units="mm"
     inkscape:current-layer="layer1"
     showgrid="true"
     inkscape:snap-grids="true"
     showguides="false"
     scale-x="1"
     units="px"
     inkscape:window-width="2560"
     inkscape:window-height="1371"
     inkscape:window-x="0"
     inkscape:window-y="32"
     inkscape:window-maximized="1"
     inkscape:pagecheckerboard="true">
    <inkscape:grid
       type="xygrid"
       id="grid14"
       originx="0"
       originy="4.233333" />
  </sodipodi:namedview>
  <metadata
     id="metadata5">
    <rdf:RDF>
      <cc:Work
         rdf:about="">
        <dc:format>image/svg+xml</dc:format>
        <dc:type
           rdf:resource="http://purl.org/dc/dcmitype/StillImage" />
        <dc:title></dc:title>
      </cc:Work>
    </rdf:RDF>
  </metadata>
  <g
     inkscape:label="Calque 1"
     inkscape:groupmode="layer"
     id="layer1"
     transform="translate(0,-288.53334)">
    <path
       style="fill:#ffffff;fill-opacity:1;stroke:none;stroke-width:0.99999994;stroke-opacity:1"
       d="M 16 1 A 15 15 0 0 1 17.273438 1.0625 A 15 15 0 0 0 16 1 z M 16 1 A 15 15 0 0 0 14.726562 1.0625 A 15 15 0 0 1 16 1 z M 14.726562 1.0625 A 15 15 0 0 0 13.949219 1.1582031 A 15 15 0 0 1 14.726562 1.0625 z M 13.949219 1.1582031 A 15 15 0 0 0 13.25 1.2636719 A 15 15 0 0 1 13.949219 1.1582031 z M 13.25 1.2636719 A 15 15 0 0 0 12.480469 1.4355469 A 15 15 0 0 1 13.25 1.2636719 z M 12.480469 1.4355469 A 15 15 0 0 0 11.789062 1.6132812 A 15 15 0 0 1 12.480469 1.4355469 z M 11.789062 1.6132812 A 15 15 0 0 0 11.048828 1.859375 A 15 15 0 0 1 11.789062 1.6132812 z M 11.048828 1.859375 A 15 15 0 0 0 10.373047 2.1054688 A 15 15 0 0 1 11.048828 1.859375 z M 10.373047 2.1054688 A 15 15 0 0 0 9.6523438 2.4277344 A 15 15 0 0 1 10.373047 2.1054688 z M 9.6523438 2.4277344 A 15 15 0 0 0 9.0117188 2.7363281 A 15 15 0 0 1 9.6523438 2.4277344 z M 9.0117188 2.7363281 A 15 15 0 0 0 8.3671875 3.1054688 A 15 15 0 0 1 9.0117188 2.7363281 z M 8.3671875 3.1054688 A 15 15 0 0 0 7.7070312 3.5117188 A 15 15 0 0 1 8.3671875 3.1054688 z M 7.7070312 3.5117188 A 15 15 0 0 0 7.1152344 3.9355469 A 15 15 0 0 1 7.7070312 3.5117188 z M 7.1152344 3.9355469 A 15 15 0 0 0 6.515625 4.390625 A 15 15 0 0 1 7.1152344 3.9355469 z M 6.515625 4.390625 A 15 15 0 0 0 5.9394531 4.8964844 A 15 15 0 0 1 6.515625 4.390625 z M 5.9394531 4.8964844 A 15 15 0 0 0 5.4003906 5.4003906 A 15 15 0 0 1 5.9394531 4.8964844 z M 5.4003906 5.4003906 A 15 15 0 0 0 4.8964844 5.9394531 A 15 15 0 0 1 5.4003906 5.4003906 z M 4.8964844 5.9394531 A 15 15 0 0 0 4.390625 6.515625 A 15 15 0 0 1 4.8964844 5.9394531 z M 4.390625 6.515625 A 15 15 0 0 0 3.9472656 7.0996094 A 15 15 0 0 1 4.390625 6.515625 z M 3.9472656 7.0996094 A 15 15 0 0 0 3.5019531 7.7226562 A 15 15 0 0 1 3.9472656 7.0996094 z M 3.5019531 7.7226562 A 15 15 0 0 0 3.125 8.3359375 A 15 15 0 0 1 3.5019531 7.7226562 z M 3.125 8.3359375 A 15 15 0 0 0 2.7363281 9.015625 A 15 15 0 0 1 3.125 8.3359375 z M 2.7363281 9.015625 A 15 15 0 0 0 2.4277344 9.6523438 A 15 15 0 0 1 2.7363281 9.015625 z M 2.4277344 9.6523438 A 15 15 0 0 0 2.1054688 10.373047 A 15 15 0 0 1 2.4277344 9.6523438 z M 2.1054688 10.373047 A 15 15 0 0 0 1.859375 11.048828 A 15 15 0 0 1 2.1054688 10.373047 z M 1.859375 11.048828 A 15 15 0 0 0 1.6132812 11.789062 A 15 15 0 0 1 1.859375 11.048828 z M 1.6132812 11.789062 A 15 15 0 0 0 1.4355469 12.480469 A 15 15 0 0 1 1.6132812 11.789062 z M 1.4355469 12.480469 A 15 15 0 0 0 1.2636719 13.25 A 15 15 0 0 1 1.4355469 12.480469 z M 1.2636719 13.25 A 15 15 0 0 0 1.1582031 13.949219 A 15 15 0 0 1 1.2636719 13.25 z M 1.1582031 13.949219 A 15 15 0 0 0 1.0625 14.726562 A 15 15 0 0 1 1.1582031 13.949219 z M 1.0625 14.726562 A 15 15 0 0 0 1 16 A 15 15 0 0 1 1.0625 14.726562 z M 1 16 A 15 15 0 0 0 1.0625 17.273438 A 15 15 0 0 1 1 16 z M 1.0625 17.273438 A 15 15 0 0 0 1.1582031 18.050781 A 15 15 0 0 1 1.0625 17.273438 z M 1.1582031 18.050781 A 15 15 0 0 0 1.2636719 18.75 A 15 15 0 0 1 1.1582031 18.050781 z M 1.2636719 18.75 A 15 15 0 0 0 1.4355469 19.519531 A 15 15 0 0 1 1.2636719 18.75 z M 1.4355469 19.519531 A 15 15 0 0 0 1.6132812 20.210938 A 15 15 0 0 1 1.4355469 19.519531 z M 1.6132812 20.210938 A 15 15 0 0 0 1.859375 20.951172 A 15 15 0 0 1 1.6132812 20.210938 z M 1.859375 20.951172 A 15 15 0 0 0 2.1054688 21.626953 A 15 15 0 0 1 1.859375 20.951172 z M 2.1054688 21.626953 A 15 15 0 0 0 2.4277344 22.347656 A 15 15 0 0 1 2.1054688 21.626953 z M 2.4277344 22.347656 A 15 15 0 0 0 2.7363281 22.984375 A 15 15 0 0 1 2.4277344 22.347656 z M 2.7363281 22.984375 A 15 15 0 0 0 3.125 23.664062 A 15 15 0 0 1 2.7363281 22.984375 z M 3.125 23.664062 A 15 15 0 0 0 3.5019531 24.277344 A 15 15 0 0 1 3.125 23.664062 z M 3.5019531 24.277344 A 15 15 0 0 0 3.9472656 24.900391 A 15 15 0 0 1 3.5019531 24.277344 z M 3.9472656 24.900391 A 15 15 0 0 0 4.390625 25.484375 A 15 15 0 0 1 3.9472656 24.900391 z M 4.390625 25.484375 A 15 15 0 0 0 4.8964844 26.060547 A 15 15 0 0 1 4.390625 25.484375 z M 4.8964844 26.060547 A 15 15 0 0 0 5.4003906 26.599609 A 15 15 0 0 1 4.8964844 26.060547 z M 5.4003906 26.599609 A 15 15 0 0 0 5.9394531 27.103516 A 15 15 0 0 1 5.4003906 26.599609 z M 5.9394531 27.103516 A 15 15 0 0 0 6.515625 27.609375 A 15 15 0 0 1 5.9394531 27.103516 z M 6.515625 27.609375 A 15 15 0 0 0 7.0996094 28.052734 A 15 15 0 0 1 6.515625 27.609375 z M 7.0996094 28.052734 A 15 15 0 0 0 7.7226562 28.498047 A 15 15 0 0 1 7.0996094 28.052734 z M 7.7226562 28.498047 A 15 15 0 0 0 8.3359375 28.875 A 15 15 0 0 1 7.7226562 28.498047 z M 8.3359375 28.875 A 15 15 0 0 0 9.015625 29.263672 A 15 15 0 0 1 8.3359375 28.875 z M 9.015625 29.263672 A 15 15 0 0 0 9.6523438 29.572266 A 15 15 0 0 1 9.015625 29.263672 z M 9.6523438 29.572266 A 15 15 0 0 0 10.373047 29.894531 A 15 15 0 0 1 9.6523438 29.572266 z M 10.373047 29.894531 A 15 15 0 0 0 11.048828 30.140625 A 15 15 0 0 1 10.373047 29.894531 z M 11.048828 30.140625 A 15 15 0 0 0 11.789062 30.386719 A 15 15 0 0 1 11.048828 30.140625 z M 11.789062 30.386719 A 15 15 0 0 0 12.480469 30.564453 A 15 15 0 0 1 11.789062 30.386719 z M 12.480469 30.564453 A 15 15 0 0 0 13.25 30.736328 A 15 15 0 0 1 12.480469 30.564453 z M 13.25 30.736328 A 15 15 0 0 0 13.949219 30.841797 A 15 15 0 0 1 13.25 30.736328 z M 13.949219 30.841797 A 15 15 0 0 0 14.726562 30.9375 A 15 15 0 0 1 13.949219 30.841797 z M 14.726562 30.9375 A 15 15 0 0 0 16 31 A 15 15 0 0 1 14.726562 30.9375 z M 16 31 A 15 15 0 0 0 17.273438 30.9375 A 15 15 0 0 1 16 31 z M 17.273438 30.9375 A 15 15 0 0 0 18.050781 30.841797 A 15 15 0 0 1 17.273438 30.9375 z M 18.050781 30.841797 A 15 15 0 0 0 18.75 30.736328 A 15 15 0 0 1 18.050781 30.841797 z M 18.75 30.736328 A 15 15 0 0 0 19.519531 30.564453 A 15 15 0 0 1 18.75 30.736328 z M 19.519531 30.564453 A 15 15 0 0 0 20.210938 30.386719 A 15 15 0 0 1 19.519531 30.564453 z M 20.210938 30.386719 A 15 15 0 0 0 20.951172 30.140625 A 15 15 0 0 1 20.210938 30.386719 z M 20.951172 30.140625 A 15 15 0 0 0 21.626953 29.894531 A 15 15 0 0 1 20.951172 30.140625 z M 21.626953 29.894531 A 15 15 0 0 0 22.347656 29.572266 A 15 15 0 0 1 21.626953 29.894531 z M 22.347656 29.572266 A 15 15 0 0 0 22.984375 29.263672 A 15 15 0 0 1 22.347656 29.572266 z M 22.984375 29.263672 A 15 15 0 0 0 23.664062 28.875 A 15 15 0 0 1 22.984375 29.263672 z M 23.664062 28.875 A 15 15 0 0 0 24.277344 28.498047 A 15 15 0 0 1 23.664062 28.875 z M 24.277344 28.498047 A 15 15 0 0 0 24.900391 28.052734 A 15 15 0 0 1 24.277344 28.498047 z M 24.900391 28.052734 A 15 15 0 0 0 25.484375 27.609375 A 15 15 0 0 1 24.900391 28.052734 z M 25.484375 27.609375 A 15 15 0 0 0 26.060547 27.103516 A 15 15 0 0 1 25.484375 27.609375 z M 26.060547 27.103516 A 15 15 0 0 0 26.599609 26.599609 A 15 15 0 0 1 26.060547 27.103516 z M 26.599609 26.599609 A 15 15 0 0 0 27.103516 26.060547 A 15 15 0 0 1 26.599609 26.599609 z M 27.103516 26.060547 A 15 15 0 0 0 27.609375 25.484375 A 15 15 0 0 1 27.103516 26.060547 z M 27.609375 25.484375 A 15 15 0 0 0 28.052734 24.900391 A 15 15 0 0 1 27.609375 25.484375 z M 28.052734 24.900391 A 15 15 0 0 0 28.498047 24.277344 A 15 15 0 0 1 28.052734 24.900391 z M 28.498047 24.277344 A 15 15 0 0 0 28.875 23.664062 A 15 15 0 0 1 28.498047 24.277344 z M 28.875 23.664062 A 15 15 0 0 0 29.263672 22.984375 A 15 15 0 0 1 28.875 23.664062 z M 29.263672 22.984375 A 15 15 0 0 0 29.572266 22.347656 A 15 15 0 0 1 29.263672 22.984375 z M 29.572266 22.347656 A 15 15 0 0 0 29.894531 21.626953 A 15 15 0 0 1 29.572266 22.347656 z M 29.894531 21.626953 A 15 15 0 0 0 30.140625 20.951172 A 15 15 0 0 1 29.894531 21.626953 z M 30.140625 20.951172 A 15 15 0 0 0 30.386719 20.210938 A 15 15 0 0 1 30.140625 20.951172 z M 30.386719 20.210938 A 15 15 0 0 0 30.564453 19.519531 A 15 15 0 0 1 30.386719 20.210938 z M 30.564453 19.519531 A 15 15 0 0 0 30.736328 18.75 A 15 15 0 0 1 30.564453 19.519531 z M 30.736328 18.75 A 15 15 0 0 0 30.841797 18.050781 A 15 15 0 0 1 30.736328 18.75 z M 30.841797 18.050781 A 15 15 0 0 0 30.9375 17.273438 A 15 15 0 0 1 30.841797 18.050781 z M 30.9375 17.273438 A 15 15 0 0 0 31 16 A 15 15 0 0 1 30.9375 17.273438 z M 31 16 A 15 15 0 0 0 30.9375 14.726562 A 15 15 0 0 1 31 16 z M 30.9375 14.726562 A 15 15 0 0 0 30.841797 13.949219 A 15 15 0 0 1 30.9375 14.726562 z M 30.841797 13.949219 A 15 15 0 0 0 30.736328 13.25 A 15 15 0 0 1 30.841797 13.949219 z M 30.736328 13.25 A 15 15 0 0 0 30.564453 12.480469 A 15 15 0 0 1 30.736328 13.25 z M 30.564453 12.480469 A 15 15 0 0 0 30.386719 11.789062 A 15 15 0 0 1 30.564453 12.480469 z M 30.386719 11.789062 A 15 15 0 0 0 30.140625 11.048828 A 15 15 0 0 1 30.386719 11.789062 z M 30.140625 11.048828 A 15 15 0 0 0 29.894531 10.373047 A 15 15 0 0 1 30.140625 11.048828 z M 29.894531 10.373047 A 15 15 0 0 0 29.572266 9.6523438 A 15 15 0 0 1 29.894531 10.373047 z M 29.572266 9.6523438 A 15 15 0 0 0 29.263672 9.015625 A 15 15 0 0 1 29.572266 9.6523438 z M 29.263672 9.015625 A 15 15 0 0 0 28.875 8.3359375 A 15 15 0 0 1 29.263672 9.015625 z M 28.875 8.3359375 A 15 15 0 0 0 28.498047 7.7226562 A 15 15 0 0 1 28.875 8.3359375 z M 28.498047 7.7226562 A 15 15 0 0 0 28.052734 7.0996094 A 15 15 0 0 1 28.498047 7.7226562 z M 28.052734 7.0996094 A 15 15 0 0 0 27.609375 6.515625 A 15 15 0 0 1 28.052734 7.0996094 z M 27.609375 6.515625 A 15 15 0 0 0 27.103516 5.9394531 A 15 15 0 0 1 27.609375 6.515625 z M 27.103516 5.9394531 A 15 15 0 0 0 26.599609 5.4003906 A 15 15 0 0 1 27.103516 5.9394531 z M 26.599609 5.4003906 A 15 15 0 0 0 26.060547 4.8964844 A 15 15 0 0 1 26.599609 5.4003906 z M 26.060547 4.8964844 A 15 15 0 0 0 25.484375 4.390625 A 15 15 0 0 1 26.060547 4.8964844 z M 25.484375 4.390625 A 15 15 0 0 0 24.900391 3.9472656 A 15 15 0 0 1 25.484375 4.390625 z M 24.900391 3.9472656 A 15 15 0 0 0 24.277344 3.5019531 A 15 15 0 0 1 24.900391 3.9472656 z M 24.277344 3.5019531 A 15 15 0 0 0 23.664062 3.125 A 15 15 0 0 1 24.277344 3.5019531 z M 23.664062 3.125 A 15 15 0 0 0 22.984375 2.7363281 A 15 15 0 0 1 23.664062 3.125 z M 22.984375 2.7363281 A 15 15 0 0 0 22.347656 2.4277344 A 15 15 0 0 1 22.984375 2.7363281 z M 22.347656 2.4277344 A 15 15 0 0 0 21.626953 2.1054688 A 15 15 0 0 1 22.347656 2.4277344 z M 21.626953 2.1054688 A 15 15 0 0 0 20.951172 1.859375 A 15 15 0 0 1 21.626953 2.1054688 z M 20.951172 1.859375 A 15 15 0 0 0 20.210938 1.6132812 A 15 15 0 0 1 20.951172 1.859375 z M 20.210938 1.6132812 A 15 15 0 0 0 19.519531 1.4355469 A 15 15 0 0 1 20.210938 1.6132812 z M 19.519531 1.4355469 A 15 15 0 0 0 18.75 1.2636719 A 15 15 0 0 1 19.519531 1.4355469 z M 18.75 1.2636719 A 15 15 0 0 0 18.050781 1.1582031 A 15 15 0 0 1 18.75 1.2636719 z M 18.050781 1.1582031 A 15 15 0 0 0 17.273438 1.0625 A 15 15 0 0 1 18.050781 1.1582031 z M 16.001953 5.0136719 A 3 3 0 0 0 13.001953 8.0136719 A 3 3 0 0 0 16.001953 11.013672 A 3 3 0 0 0 19.001953 8.0136719 A 3 3 0 0 0 16.001953 5.0136719 z M 15 13 C 13.892015 13 13 13.892015 13 15 L 13 25 C 13 26.107985 13.892015 27 15 27 L 17 27 C 18.107985 27 19 26.107985 19 25 L 19 15 C 19 13.892015 18.107985 13 17 13 L 15 13 z "
       transform="matrix(0.26458333,0,0,0.26458333,0,288.53334)"
       id="path18" />
    <path
       style="fill:#ffffff;fill-opacity:1;stroke:none;stroke-width:0.99999994;stroke-opacity:1"
       d="M 16 1 A 15 15 0 0 0 1 16 A 15 15 0 0 0 16 31 A 15 15 0 0 0 31 16 A 15 15 0 0 0 16 1 z M 16 3 A 13 13 0 0 1 29 16 A 13 13 0 0 1 16 29 A 13 13 0 0 1 3 16 A 13 13 0 0 1 16 3 z "
       transform="matrix(0.26458333,0,0,0.26458333,0,288.53334)"
       id="path32" />
  </g>
  <g
     transform="translate(0,-288.53334)"
     id="g24"
     inkscape:groupmode="layer"
     inkscape:label="Copie de Calque 1" />
</svg>
