<?xml version="1.0" encoding="UTF-8" standalone="no"?>
<!-- Created with Inkscape (http://www.inkscape.org/) -->

<svg
   xmlns:dc="http://purl.org/dc/elements/1.1/"
   xmlns:cc="http://creativecommons.org/ns#"
   xmlns:rdf="http://www.w3.org/1999/02/22-rdf-syntax-ns#"
   xmlns:svg="http://www.w3.org/2000/svg"
   xmlns="http://www.w3.org/2000/svg"
   xmlns:sodipodi="http://sodipodi.sourceforge.net/DTD/sodipodi-0.dtd"
   xmlns:inkscape="http://www.inkscape.org/namespaces/inkscape"
   width="32"
   height="32"
   viewBox="0 0 8.4666659 8.4666659"
   version="1.1"
   id="svg8"
   inkscape:version="0.92.4 (f8dce91, 2019-08-02)"
   sodipodi:docname="iso.svg">
  <defs
     id="defs2" />
  <sodipodi:namedview
     id="base"
     pagecolor="#ffffff"
     bordercolor="#666666"
     borderopacity="1.0"
     inkscape:pageopacity="0.0"
     inkscape:pageshadow="2"
     inkscape:zoom="32"
     inkscape:cx="11.573724"
     inkscape:cy="17.381489"
     inkscape:document-units="mm"
     inkscape:current-layer="layer1"
     showgrid="true"
     inkscape:snap-grids="true"
     showguides="false"
     scale-x="1"
     units="px"
     inkscape:window-width="2560"
     inkscape:window-height="1371"
     inkscape:window-x="0"
     inkscape:window-y="32"
     inkscape:window-maximized="1"
     inkscape:pagecheckerboard="false">
    <inkscape:grid
       type="xygrid"
       id="grid14"
       originx="0"
       originy="4.233333" />
  </sodipodi:namedview>
  <metadata
     id="metadata5">
    <rdf:RDF>
      <cc:Work
         rdf:about="">
        <dc:format>image/svg+xml</dc:format>
        <dc:type
           rdf:resource="http://purl.org/dc/dcmitype/StillImage" />
        <dc:title></dc:title>
      </cc:Work>
    </rdf:RDF>
  </metadata>
  <g
     inkscape:label="Calque 1"
     inkscape:groupmode="layer"
     id="layer1"
     transform="translate(0,-288.53334)">
    <path
       style="fill:#cccccc;stroke-width:0.26458332"
       d="m 0.79375004,290.12084 c -0.29316558,0 -0.52916666,0.26235 -0.52916666,0.58808 v 4.11551 c 0,0.32575 0.23600108,0.58808 0.52916666,0.58808 H 7.6729166 c 0.2931655,0 0.5291667,-0.26233 0.5291667,-0.58808 v -4.11551 c 0,-0.32573 -0.2360012,-0.58808 -0.5291667,-0.58808 H 5.55625 3.175 Z"
       id="rect4065"
       inkscape:connector-curvature="0" />
    <g
       aria-label="ISO"
       style="font-style:normal;font-variant:normal;font-weight:normal;font-stretch:normal;font-size:4.23333311px;line-height:1.25;font-family:'Roboto Condensed';-inkscape-font-specification:'Roboto Condensed, ';letter-spacing:0.00264583px;word-spacing:0px;fill:#ffffff;fill-opacity:1;stroke:none;stroke-width:0.26458332"
       id="text4110">
      <path
         d="M 2.0536215,294.27148 H 1.6360759 v -3.00963 h 0.4175456 z"
         style="font-style:normal;font-variant:normal;font-weight:normal;font-stretch:normal;font-size:4.23333311px;font-family:'Roboto Condensed';-inkscape-font-specification:'Roboto Condensed, ';letter-spacing:0.00264583px;fill:#ffffff;stroke-width:0.26458332"
         id="path34" />
      <path
         d="m 4.0447763,293.51494 q 0,-0.21291 -0.1198893,-0.34933 -0.1198893,-0.13643 -0.4196126,-0.23978 -0.4299479,-0.13022 -0.6593912,-0.339 -0.2294434,-0.21084 -0.2294434,-0.55604 0,-0.35553 0.254248,-0.58291 0.2563151,-0.22944 0.6573242,-0.22944 0.4175456,0 0.6717936,0.26458 0.2563151,0.26252 0.2480469,0.63459 l -0.00413,0.0124 H 4.0406422 q 0,-0.26251 -0.1364258,-0.42581 -0.1343587,-0.16537 -0.3803385,-0.16537 -0.2335774,0 -0.361735,0.1385 -0.1260905,0.13642 -0.1260905,0.34933 0,0.19224 0.1364258,0.32453 0.1364258,0.13022 0.4506185,0.23771 0.4113443,0.12816 0.6263183,0.34933 0.2149739,0.22118 0.2149739,0.57258 0,0.37 -0.254248,0.58704 -0.254248,0.21704 -0.6676595,0.21704 -0.4030761,0 -0.7048665,-0.23771 -0.2997233,-0.23978 -0.289388,-0.67386 l 0.00413,-0.0124 h 0.4030762 q 0,0.31006 0.1612305,0.45888 0.1632975,0.14883 0.4258137,0.14883 0.2356446,0 0.3679362,-0.13022 0.1343587,-0.13229 0.1343587,-0.35347 z"
         style="font-style:normal;font-variant:normal;font-weight:normal;font-stretch:normal;font-size:4.23333311px;font-family:'Roboto Condensed';-inkscape-font-specification:'Roboto Condensed, ';letter-spacing:0.00264583px;fill:#ffffff;stroke-width:0.26458332"
         id="path36" />
      <path
         d="m 6.8358821,293.18215 q 0,0.53536 -0.2769857,0.83509 -0.2769856,0.29765 -0.7420735,0.29765 -0.4588867,0 -0.7296712,-0.29765 -0.2707845,-0.29973 -0.2707845,-0.83509 v -0.82683 q 0,-0.5333 0.2707845,-0.83509 0.2728516,-0.30179 0.7296712,-0.30179 0.4630208,0 0.7400065,0.30179 0.2790527,0.30179 0.2790527,0.83509 z m -0.4175456,-0.83303 q 0,-0.39274 -0.1570963,-0.59531 -0.1570963,-0.20464 -0.4444173,-0.20464 -0.2831868,0 -0.434082,0.20464 -0.1508952,0.20257 -0.1508952,0.59531 v 0.83303 q 0,0.39687 0.1508952,0.60151 0.1529622,0.20464 0.434082,0.20464 0.289388,0 0.4444173,-0.20257 0.1570963,-0.20464 0.1570963,-0.60358 z"
         style="font-style:normal;font-variant:normal;font-weight:normal;font-stretch:normal;font-size:4.23333311px;font-family:'Roboto Condensed';-inkscape-font-specification:'Roboto Condensed, ';letter-spacing:0.00264583px;fill:#ffffff;stroke-width:0.26458332"
         id="path38" />
    </g>
  </g>
  <g
     transform="translate(0,-288.53334)"
     id="g24"
     inkscape:groupmode="layer"
     inkscape:label="Copie de Calque 1" />
</svg>
